<?xml version="1.0" encoding="UTF-8" standalone="no"?>
<svg
   version="1.1"
   id="Layer_1"
   x="0px"
   y="0px"
   width="100%"
   viewBox="0 0 500 500"
   enable-background="new 0 0 500 500"
   xml:space="preserve"
   xmlns="http://www.w3.org/2000/svg"
   xmlns:svg="http://www.w3.org/2000/svg"><defs
   id="defs28"><clipPath
     clipPathUnits="userSpaceOnUse"
     id="clipPath84"><path
       id="path85"
       style="fill:#ff0000;fill-opacity:1;fill-rule:nonzero;stroke:none"
       d="M 176.87462,135.74414 V 276.85352 H 317.98399 V 135.74414 Z m 72.06055,46.82617 c 0.30978,-0.0219 0.52906,0.36899 0.16015,0.72461 -0.0979,0.0944 -0.18541,0.19677 -0.26562,0.30469 0.17316,0.18392 0.26306,0.46925 -0.0215,0.63672 -0.14595,0.0859 -0.30838,0.1658 -0.47656,0.20703 -0.0305,0.0638 -0.053,0.11021 -0.0684,0.14258 -0.0286,0.12204 -0.058,0.24461 -0.0918,0.36523 -0.0208,0.074 -0.0302,0.15315 -0.0703,0.21875 -0.0515,0.0841 -0.10312,0.24105 -0.19922,0.21875 -0.2184,-0.0506 -0.36461,-0.26008 -0.54687,-0.39062 -0.0164,-0.24864 -0.0167,-0.49743 -0.0293,-0.7461 -0.16824,-0.25697 -0.37471,-0.48832 -0.57031,-0.72461 0.006,-0.0162 0.0125,-0.0336 0.0176,-0.0508 -0.0339,-0.0178 -0.0687,-0.0363 -0.10352,-0.0547 -0.43556,-0.23032 -0.21123,-0.66361 0.22852,-0.44141 0.0154,0.008 0.03,0.0159 0.0449,0.0234 0.007,-0.007 0.0151,-0.0137 0.0234,-0.0195 0.14896,-0.10433 0.49011,0.11964 0.66796,0.23828 0.0922,-0.0909 0.21255,-0.15001 0.35352,-0.14258 0.0309,-0.0578 0.0683,-0.10878 0.12695,-0.11914 0.0213,-0.004 0.0412,-0.006 0.0625,-0.006 0.0822,-0.001 0.16387,0.0218 0.2461,0.0469 0.0434,-0.0637 0.0887,-0.12727 0.13476,-0.18945 0.11938,-0.16109 0.25574,-0.23362 0.37696,-0.24219 z" /></clipPath><clipPath
     clipPathUnits="userSpaceOnUse"
     id="clipPath87"><path
       id="path88"
       style="fill:#ff0000;fill-opacity:1;fill-rule:nonzero;stroke:none"
       d="m 176.87525,135.74414 v 64.55664 c 0.0859,0.0153 0.17252,0.0301 0.25977,0.043 1.03823,-0.54622 2.33659,-0.71471 3.43164,-1.17773 0.92708,3.73615 1.82454,7.48303 2.85937,11.1914 0.13213,-0.12353 0.26942,-0.23268 0.41016,-0.32422 0.69667,-0.4531 1.54955,-0.97869 2.36133,-0.80078 1.10767,0.24275 2.12852,1.01702 2.79883,1.93164 0.15139,0.20657 0.26441,0.43271 0.35351,0.66992 1.98191,0.16314 2.97498,2.64991 0.61133,4.06055 0.009,0.21625 0.0166,0.41894 0.0234,0.61133 0.4736,0.29402 0.89059,0.65363 1.20312,1.09375 0.096,0.13523 0.17784,0.27924 0.24805,0.42773 0.35307,0.37893 0.5468,0.94134 0.51953,1.74024 0.0437,0.16552 0.0915,0.32855 0.14649,0.48828 -0.1896,0.5211 -0.30503,1.08067 -0.47266,1.61328 0.0218,0.97382 -0.24783,1.98212 -0.69922,2.82813 -0.42608,0.79854 -1.30348,1.25458 -2.09766,1.72265 -0.14098,1.17348 -0.36094,2.07249 -1.4414,2.6582 -0.13828,2.08791 -0.77449,4.22041 -4,3.1875 -0.43899,-0.14055 -0.73677,-0.47737 -0.9668,-0.89648 -0.19702,0.17416 -0.40004,0.33805 -0.61914,0.48242 -0.27577,0.18172 -0.58097,0.3168 -0.87109,0.47461 -0.95932,-0.37811 -2.21635,-0.34465 -2.87891,-1.13476 -0.44872,-0.53513 -0.32201,-1.48667 -0.0684,-2.36524 -0.0896,-0.12861 -0.17129,-0.262 -0.24414,-0.40039 -0.19554,-0.37144 -0.0952,-0.7834 0.084,-1.20117 -0.15467,0.0145 -0.30902,0.0254 -0.46484,0.0332 -0.16087,0.008 -0.32339,0.0143 -0.48633,0.0176 v 49.57813 H 317.98463 V 135.74414 Z m 123.66992,11.53711 c 2.22736,-0.0162 3.04809,2.52272 0.22266,4.25391 -0.66264,0.406 -1.33353,0.79297 -2.01367,1.16796 0.0201,0.0737 0.0384,0.14957 0.0547,0.22657 0.0939,0.4449 0.12188,0.85247 0.0976,1.23047 -7.4e-4,0.12925 -0.0161,0.26091 -0.041,0.39648 0.006,0.0316 0.0125,0.064 0.0176,0.0957 0.0943,0.10202 0.18104,0.21243 0.25585,0.33204 0.0696,0.11116 0.13361,0.22328 0.19336,0.33593 0.37919,-0.13819 0.75892,-0.27325 1.14063,-0.40429 0.93814,-0.32207 3.19147,-1.07504 4.32812,-1.08204 0.59262,-0.004 1.16832,0.20575 1.75196,0.3086 0.13303,0.29193 0.30862,0.57482 0.49023,0.85742 0.22202,-0.13328 0.44601,-0.26553 0.67188,-0.39648 0.44203,-0.13475 1.00768,-0.73915 1.32617,-0.4043 0.98582,1.03647 1.98294,2.40252 1.93164,3.83203 -0.0321,0.89599 -1.21867,1.28597 -2,1.79492 0.13729,0.52694 0.18497,1.06524 0.10351,1.58594 -0.16104,1.02942 -1.45058,1.50421 -2.26171,2.1582 -1.07312,0.86521 -3.39098,2.2151 -4.67774,2.76563 -0.6417,0.27454 -1.32912,0.42288 -1.99414,0.63476 -0.93165,-0.56332 -2.5206,-0.64019 -2.82422,-1.66797 -0.70754,0.18862 -1.41448,0.37452 -2.14062,0.44922 -0.0163,0.002 -0.0325,0.004 -0.0488,0.006 -0.0583,0.0454 -0.11596,0.0893 -0.17383,0.13281 -0.71918,0.54082 -1.56295,0.89453 -2.34375,1.3418 -0.91644,0.0189 -1.88325,0.36066 -2.74805,0.0566 -0.89292,-0.31374 -1.54066,-0.79999 -1.98632,-1.39453 -1.22606,-0.11056 -1.99801,-0.90004 -2.23047,-1.77539 -0.46257,-0.53223 -0.81886,-1.19333 -1.27735,-1.73047 0.15184,-0.88583 0.12803,-1.82183 0.45703,-2.6582 0.11487,-0.29203 0.26013,-0.58606 0.4336,-0.87891 -0.94814,0.29552 -1.83863,0.50846 -1.99414,0.32227 -0.8532,-1.02162 -1.39618,-1.71239 -1.68164,-2.22266 -2.12768,0.25041 -4.46002,0.50481 -6.20508,0.6211 -1.136,0.0757 -2.2761,0.0716 -3.41406,0.10742 -0.72208,-0.0892 -1.84736,0.3865 -2.16602,-0.26758 -0.65495,-1.34432 -0.93445,-3.20906 -0.15039,-4.48242 0.67193,-1.09126 2.41151,-0.88462 3.65234,-1.20508 4.5774,-1.18218 9.4383,-1.65267 14.12696,-2.14649 1.53671,-0.0385 4.2726,-0.32641 6.6875,0.0156 0.40467,-0.24673 0.81186,-0.36791 1.18945,-0.37891 0.24381,-0.007 0.47567,0.0324 0.68555,0.11328 0.8121,-0.43295 1.614,-0.88437 2.40234,-1.35937 0.7947,-0.47884 1.52868,-0.68296 2.15234,-0.6875 z m -13.59179,13.23242 c -0.0793,0.0127 -0.17239,0.20044 -0.15039,0.25781 l 0.002,0.002 0.002,0.002 0.002,0.002 h 0.002 l 0.002,0.002 h 0.002 l 0.002,0.002 v 0.002 h 0.002 c 0.004,7e-4 0.0109,6.5e-4 0.0156,0 0.18287,-0.0252 0.36955,-0.0718 0.56054,-0.13672 -0.13776,-0.0546 -0.27697,-0.10043 -0.42187,-0.13281 -0.006,-0.001 -0.0131,-0.001 -0.0195,0 z m -38.01758,22.05664 c 0.30978,-0.0219 0.52907,0.36899 0.16016,0.72461 -0.0979,0.0944 -0.18542,0.19677 -0.26563,0.30469 0.17316,0.18392 0.26306,0.46925 -0.0215,0.63672 -0.14595,0.0859 -0.30839,0.1658 -0.47657,0.20703 -0.0305,0.0638 -0.053,0.11021 -0.0684,0.14258 -0.0286,0.12204 -0.0579,0.24461 -0.0918,0.36523 -0.0208,0.074 -0.0302,0.15315 -0.0703,0.21875 -0.0515,0.0841 -0.10312,0.24105 -0.19922,0.21875 -0.2184,-0.0506 -0.36462,-0.26008 -0.54688,-0.39062 -0.0164,-0.24864 -0.0167,-0.49743 -0.0293,-0.7461 -0.16824,-0.25697 -0.37471,-0.48832 -0.57031,-0.72461 0.006,-0.0162 0.0125,-0.0336 0.0176,-0.0508 -0.0339,-0.0178 -0.0687,-0.0363 -0.10352,-0.0547 -0.43556,-0.23032 -0.21123,-0.66361 0.22852,-0.44141 0.0154,0.008 0.03,0.0159 0.0449,0.0234 0.007,-0.007 0.0151,-0.0137 0.0234,-0.0195 0.14896,-0.10433 0.49012,0.11964 0.66797,0.23828 0.0922,-0.0909 0.21254,-0.15001 0.35351,-0.14258 0.0309,-0.0578 0.0683,-0.10878 0.12696,-0.11914 0.0213,-0.004 0.0412,-0.006 0.0625,-0.006 0.0822,-0.001 0.16386,0.0218 0.24609,0.0469 0.0434,-0.0637 0.0887,-0.12727 0.13477,-0.18945 0.11938,-0.16109 0.25573,-0.23362 0.37695,-0.24219 z" /></clipPath><clipPath
     clipPathUnits="userSpaceOnUse"
     id="clipPath89"><path
       id="path89"
       style="fill:#ff0000;fill-opacity:1;fill-rule:nonzero;stroke:none"
       d="m 231.48242,181.48438 v 33.63476 h 19.60156 v -31.01953 c -0.0536,0.0963 -0.10448,0.19422 -0.15625,0.29101 -0.0436,0.0924 -0.0744,0.15455 -0.0937,0.19532 -0.0286,0.12204 -0.0579,0.24461 -0.0918,0.36523 -0.0208,0.074 -0.0302,0.15315 -0.0703,0.21875 -0.0515,0.0841 -0.10312,0.24105 -0.19922,0.21875 -0.2184,-0.0506 -0.36462,-0.26008 -0.54688,-0.39062 -0.0164,-0.24864 -0.0167,-0.49743 -0.0293,-0.7461 -0.16824,-0.25697 -0.37471,-0.48832 -0.57031,-0.72461 0.006,-0.0162 0.0125,-0.0336 0.0176,-0.0508 -0.0339,-0.0178 -0.0687,-0.0363 -0.10352,-0.0547 -0.43556,-0.23032 -0.21123,-0.66361 0.22852,-0.44141 0.0154,0.008 0.03,0.0159 0.0449,0.0234 0.007,-0.007 0.0151,-0.0137 0.0234,-0.0195 0.17745,-0.12428 0.62827,0.21611 0.75,0.29101 0.13011,0.0801 0.26036,0.15802 0.39258,0.23242 0.12522,-0.21783 0.25701,-0.43036 0.40429,-0.63476 v -1.38867 z" /></clipPath><clipPath
     clipPathUnits="userSpaceOnUse"
     id="clipPath107"><path
       id="path108"
       style="fill:#ff0000;fill-opacity:1;fill-rule:nonzero;stroke:none"
       d="m 209.65546,154.54331 v 24.1543 h 32.38281 v -24.1543 z m 28.94922,10.6875 c 0.1567,0.002 0.32697,0.10942 0.41797,0.36328 0.15316,0.42731 0.41359,0.80145 0.69531,1.15821 0.0127,-0.0201 0.0269,-0.039 0.043,-0.0566 0.14944,-0.16441 0.3039,-0.24198 0.47266,-0.19532 0.0101,-0.0768 0.0184,-0.15567 0.0664,-0.21289 0.0803,-0.0955 0.18784,-0.2391 0.30469,-0.24414 0.0167,-7.2e-4 0.0338,0.002 0.0508,0.008 0.20245,0.065 0.2777,0.32287 0.41602,0.48438 -0.004,0.0402 -0.0103,0.0791 -0.0156,0.11914 0.008,0.003 0.0158,0.006 0.0234,0.01 0.47867,0.2335 0.52898,0.64965 0.5293,1.11132 4e-4,0.6501 -0.25152,1.26815 -0.48243,1.86133 -0.10309,0.19119 -0.27793,0.60039 -0.50195,0.72461 -0.008,0.004 -0.0157,0.01 -0.0234,0.0137 -0.0288,0.0236 -0.062,0.0385 -0.0996,0.0449 -0.0879,0.0335 -0.17095,0.0468 -0.24804,0.041 -0.007,0.0296 -0.0128,0.0603 -0.0195,0.0898 -0.12728,0.55818 -0.71195,0.4436 -0.67188,-0.006 -0.11499,0.1491 -0.25278,0.23503 -0.41406,0.17578 -0.0378,-0.0139 -0.0728,-0.0291 -0.10352,-0.0449 -0.11207,0.36077 -0.22909,0.7199 -0.34375,1.08008 -0.0197,0.0596 -0.039,0.12009 -0.0586,0.17969 -0.17419,0.52873 -0.70747,0.35293 -0.5332,-0.17578 0.019,-0.0577 0.0376,-0.11604 0.0566,-0.17383 0.14702,-0.46178 0.29911,-0.92222 0.4375,-1.38672 0.15834,-0.51438 0.3227,-1.02772 0.46484,-1.54687 -0.26398,-0.46007 -0.54315,-0.91105 -0.81055,-1.36914 -0.15561,-0.27332 -0.31415,-0.55047 -0.41015,-0.85157 -0.0951,-0.29835 0.0327,-0.47528 0.19336,-0.48046 0.0916,-0.003 0.19468,0.0487 0.27343,0.16796 0.0214,-0.007 0.0429,-0.01 0.0664,-0.01 0.0637,-1e-5 0.13361,0.0275 0.19727,0.084 -0.072,-0.1046 -0.14149,-0.21078 -0.20899,-0.31836 -0.22344,-0.35611 -0.0338,-0.62349 0.20703,-0.64257 0.0103,-8.1e-4 0.0189,-0.002 0.0293,-0.002 z m 2.41992,2.2168 c -0.0202,0.0169 -0.0478,0.0426 -0.084,0.0801 0.0301,0.003 0.0599,0.01 0.0898,0.0117 -0.004,-0.0263 -0.007,-0.0536 -0.008,-0.0801 v -0.002 -0.002 -0.002 -0.002 h 0.002 v -0.002 z" /></clipPath></defs>




























<g
   id="layer1"
   transform="translate(2.570694)"><path
     style="fill:#000000;fill-opacity:0;stroke:#0b0d28;stroke-width:4;stroke-linecap:round;stroke-linejoin:round;stroke-dasharray:none;stroke-opacity:1"
     d="m 191.4096,241.10968 c 0,0 4.3916,-14.35304 19.92288,-20.994 0,0 10.81833,10.06855 6.31962,25.70694 0,0 6.9623,8.46187 -1.92802,17.56641"
     id="path36" /><path
     style="fill:#000000;fill-opacity:0;stroke:#0b0d28;stroke-width:4;stroke-linecap:round;stroke-linejoin:round;stroke-dasharray:none;stroke-opacity:1"
     d="m 232.43359,271.20823 c 0,0 1.17824,-10.92545 12.85347,-16.28107 11.67524,-5.35561 12.53213,-10.71122 12.53213,-10.71122 0,0 2.03514,17.4593 18.63754,23.02913"
     id="path37" /><path
     style="fill:#000000;fill-opacity:0;stroke:#0b0d28;stroke-width:4;stroke-linecap:round;stroke-linejoin:round;stroke-dasharray:none;stroke-opacity:1"
     d="m 299.8072,166.55955 c 0,0 -11.99657,2.67781 -15.10283,12.63925 -3.10625,9.96144 -14.24593,-4.92716 -20.35133,18.3162 0,0 20.02999,8.89031 18.3162,24.95715 -1.7138,16.06684 2.6778,23.13625 2.6778,23.13625 0,0 5.89118,-19.81577 27.31363,-23.45759"
     id="path38" /><path
     style="fill:#000000;fill-opacity:0;stroke:#0b0d28;stroke-width:4;stroke-linecap:round;stroke-linejoin:round;stroke-dasharray:none;stroke-opacity:1"
     d="m 222.79349,145.02999 c 0,0 22.06512,1.7138 26.45672,8.46187 0,0 6.1054,-10.71123 16.28107,-11.56812"
     id="path39" /><circle
     style="fill:#000000;fill-opacity:0;stroke:#0b0d28;stroke-width:6;stroke-dasharray:none;stroke-opacity:1"
     id="path29"
     cx="247.42931"
     cy="206.2982"
     r="67.554977"
     clip-path="url(#clipPath84)" /></g><text
   xml:space="preserve"
   style="font-style:normal;font-variant:normal;font-weight:500;font-stretch:normal;font-size:66.4349px;font-family:'Helvetica Compressed';-inkscape-font-specification:'Helvetica Compressed Medium';text-align:start;writing-mode:lr-tb;direction:ltr;text-anchor:start;display:none;fill:#4653e2;fill-opacity:1;stroke:#000000;stroke-width:33.2173;stroke-linecap:round;stroke-linejoin:round"
   x="139.5164"
   y="319.86575"
   id="text68"
   transform="scale(0.90544674,1.1044272)"><tspan
     id="tspan68"
     x="139.5164"
     y="319.86575"
     style="fill:#4653e2;fill-opacity:1;stroke:none;stroke-width:33.2173">TRIP AGORA</tspan></text><path
   style="font-weight:500;font-size:66.4349px;font-family:'Helvetica Compressed';-inkscape-font-specification:'Helvetica Compressed Medium';fill:#4653e2;stroke-width:33.2173;stroke-linecap:round;stroke-linejoin:round"
   d="m 148.15294,279.73907 v 40.12668 h 11.02819 v -40.12668 h 7.70645 v -7.17496 h -26.44109 v 7.17496 z m 32.02166,40.12668 v -21.59134 h 1.79374 c 1.99305,0 3.9861,1.66087 3.9861,4.98262 v 10.03167 c 0,1.86018 0.26574,4.65044 1.59443,6.57705 h 11.09463 c -1.3287,-1.92661 -1.66087,-4.71687 -1.66087,-6.57705 v -9.8988 c 0,-6.77636 -3.12244,-8.76941 -8.43723,-8.90228 v -0.13287 c 5.97914,-0.99652 8.43723,-4.84975 8.43723,-10.76245 0,-9.96524 -6.24488,-11.02819 -16.7416,-11.02819 h -11.09462 v 47.30164 z m 0,-40.52528 c 5.04905,0 5.77984,1.66087 5.77984,6.04557 0,4.45114 -0.79722,6.11201 -5.77984,6.11201 z m 30.7594,40.52528 v -47.30164 h -11.02819 v 47.30164 z m 13.75206,-40.52528 h 1.7273 c 3.85323,0 4.11897,2.19235 4.11897,7.77288 0,5.58053 -0.26574,7.70645 -4.11897,7.70645 h -1.7273 z m 0,40.52528 v -18.26959 h 4.05253 c 6.51062,0 12.82193,-3.12244 12.82193,-10.23098 v -8.63654 c 0,-8.17149 -5.64696,-10.16453 -14.41637,-10.16453 h -13.48629 v 47.30164 z m 46.77024,-18.80107 1.92661,-21.05987 h 0.13287 l 1.92661,21.05987 z m -4.25183,-28.50057 -8.03863,47.30164 h 9.30089 l 1.79374,-11.6261 h 5.97914 l 1.26226,11.6261 h 10.96176 l -6.11201,-47.30164 z m 44.97646,47.30164 h 6.44419 v -23.85013 h -15.21359 v 7.17497 h 4.1854 v 6.31132 c 0,1.92661 -0.59792,3.72035 -2.92314,3.72035 -2.39166,0 -2.92313,-1.79374 -2.92313,-3.72035 v -26.57396 c 0,-1.92661 0.59791,-3.72035 2.92313,-3.72035 2.32522,0 2.92314,1.79374 2.92314,3.72035 v 6.57705 h 11.02819 l 0.0664,-4.98261 c -0.13287,-9.30089 -5.11548,-12.88837 -14.01776,-12.88837 -7.30784,0 -13.95133,2.98957 -13.95133,13.81846 v 21.5249 c 0,10.82889 4.05253,13.81846 11.29394,13.81846 1.59443,0 3.38818,-0.13287 5.04905,-0.66435 1.7273,-0.46504 3.32174,-1.3287 4.51757,-2.65739 z m 20.39558,-36.9378 c 0,-1.92661 0.59791,-3.72035 2.92313,-3.72035 2.32522,0 2.92314,1.79374 2.92314,3.72035 v 26.57396 c 0,1.92661 -0.59792,3.72035 -2.92314,3.72035 -2.32522,0 -2.92313,-1.79374 -2.92313,-3.72035 z m 16.87446,2.52453 c 0,-10.82889 -6.64349,-13.81846 -13.95133,-13.81846 -7.30784,0 -13.95133,2.98957 -13.95133,13.81846 v 21.5249 c 0,10.82889 6.64349,13.81846 13.95133,13.81846 7.30784,0 13.95133,-2.98957 13.95133,-13.81846 z m 13.8185,34.41327 v -21.59134 h 1.79375 c 1.99304,0 3.98609,1.66087 3.98609,4.98262 v 10.03167 c 0,1.86018 0.26574,4.65044 1.59444,6.57705 h 11.09463 c -1.3287,-1.92661 -1.66088,-4.71687 -1.66088,-6.57705 v -9.8988 c 0,-6.77636 -3.12244,-8.76941 -8.43723,-8.90228 v -0.13287 c 5.97914,-0.99652 8.43723,-4.84975 8.43723,-10.76245 0,-9.96524 -6.24488,-11.02819 -16.74159,-11.02819 h -11.09463 v 47.30164 z m 0,-40.52528 c 5.04906,0 5.77984,1.66087 5.77984,6.04557 0,4.45114 -0.79722,6.11201 -5.77984,6.11201 z m 31.49019,21.72421 1.92661,-21.05987 h 0.13287 l 1.92661,21.05987 z m -4.25183,-28.50057 -8.03863,47.30164 h 9.30089 l 1.79374,-11.6261 h 5.97914 l 1.26226,11.6261 h 10.96176 l -6.11201,-47.30164 z"
   id="text1"
   transform="scale(0.90544674,1.1044272)"
   aria-label="TRIP AGORA" /><g
   id="layer2"
   transform="translate(2.0156826)"><path
     style="fill:none;fill-opacity:0;stroke:#5c69f5;stroke-width:6;stroke-linecap:round;stroke-linejoin:bevel;stroke-dasharray:none;stroke-opacity:1"
     d="m 202.65638,256.64096 c 0,0 -57.84061,3.85604 -8.14053,-50.98543"
     id="path30" /><path
     style="fill:none;fill-opacity:0;stroke:#5c69f5;stroke-width:6;stroke-linecap:round;stroke-linejoin:round;stroke-dasharray:none;stroke-opacity:1"
     d="m 264.35304,164.95287 c 0,0 82.69066,-29.13453 49.27164,24.85004"
     id="path31" /><circle
     style="fill:#000000;fill-opacity:0;stroke:#091028;stroke-width:6;stroke-dasharray:none;stroke-opacity:1"
     id="circle1"
     cx="247.42931"
     cy="206.2982"
     r="67.554977"
     clip-path="url(#clipPath87)"
     transform="translate(0.5543774)" /></g><g
   id="layer3"><path
     style="fill:#000000;fill-opacity:0;stroke:#5c69f5;stroke-width:4.5;stroke-linecap:round;stroke-linejoin:round;stroke-dasharray:none;stroke-opacity:1"
     d="m 210.57068,190.12069 30.84833,-20.994 h 15.85261 l -6.85518,14.56726 -35.13282,16.70951 z"
     id="path32" /><path
     style="fill:#000000;fill-opacity:0;stroke:#5c69f5;stroke-width:4;stroke-linecap:round;stroke-linejoin:round;stroke-dasharray:none;stroke-opacity:1"
     d="m 226.05738,176.94661 -14.6508,-17.84132 c 0,0 5.86031,-4.90637 10.46485,-1.78414 4.60454,3.12223 11.72064,12.93496 18.41816,11.15083"
     id="path33"
     clip-path="url(#clipPath107)"
     transform="translate(3.6052542,0.2328493)" /><path
     style="fill:#000000;fill-opacity:0;stroke:#5c69f5;stroke-width:4;stroke-linecap:round;stroke-linejoin:round;stroke-dasharray:none;stroke-opacity:1"
     d="m 233.23175,192.38897 8.49892,20.97994 c 0,0 8.94621,-0.38144 6.70965,-13.35087 -2.23656,-12.96942 0.89462,-16.78396 0.89462,-16.78396"
     id="path34"
     clip-path="url(#clipPath89)"
     transform="translate(1.8976291,-0.57810482)" /><path
     style="fill:#000000;fill-opacity:0;stroke:#5c69f5;stroke-width:4;stroke-linecap:round;stroke-linejoin:bevel;stroke-dasharray:none;stroke-opacity:1"
     d="m 217.31875,184.76508 c 0,0 -2.46358,-6.1054 -14.13881,-3.4276 0,0 -1.28535,5.89118 1.49957,10.60412 0,0 -5.2485,11.99657 7.49786,11.56812 0,0 3.10625,5.03428 7.39074,8.03342 0,0 4.92716,-2.57069 5.67695,-8.14053 0.74979,-5.56984 -0.96401,-7.17652 -0.96401,-7.17652"
     id="path35" /></g></svg>
